#!OML:ASF E:\motion texture\Top Level 1\Subject 1\Session 1\male.ASF
:FULLY-SPECIFIED
:DEGREES
370
root 5.0165 17.7887 4.72132 7.84312 -75.8936 -0.627106
lowerback -2.84423 2.21599 -0.120478
upperback -4.35734 2.90849 1.0502
thorax -2.94634 1.44542 1.15304
lowerneck -8.33008 -1.66053 -6.38104
upperneck -4.66605 -1.70241 7.46445
head 0.097271 -0.761695 3.50712
rclavicle -9.01985e-015 -5.56597e-015
rhumerus 36.7287 22.7983 -83.0796
rradius 64.3252
rwrist -32.6993
rhand -8.98559 -39.3108
rfingers 7.12502
rthumb 16.9603 -68.5903
lclavicle -9.01985e-015 -5.56597e-015
lhumerus 39.614 -5.45088 80.046
lradius 63.2934
lwrist 9.76921
lhand -14.0522 37.0382
lfingers 7.12502
lthumb 12.0788 66.6695
rfemur -30.5002 -3.25678 16.9697
rtibia 15.7967
rfoot -1.489 -21.5401
rtoes 13.829
lfemur -0.143015 -7.47694 -16.3249
ltibia 24.6174
lfoot -10.2506 -7.38872
ltoes -16.7905
371
root 4.8639 17.7877 4.69624 8.4295 -75.7839 -1.26002
lowerback -2.83764 2.26205 0.0441514
upperback -4.34297 2.96928 1.08142
thorax -2.92965 1.47129 1.09347
lowerneck -8.63697 -1.73256 -6.33505
upperneck -3.8934 -1.8085 7.45081
head 0.408323 -0.802597 3.48822
rclavicle 4.45775e-014 1.47101e-014
rhumerus 35.8983 23.435 -83.5791
rradius 64.1364
rwrist -32.8162
rhand -9.01724 -39.4376
rfingers 7.12502
rthumb 16.9298 -68.7198
lclavicle 4.45775e-014 1.47101e-014
lhumerus 38.1812 -6.1409 80.3053
lradius 63.8697
lwrist 9.73521
lhand -13.9929 37.1115
lfingers 7.12502
lthumb 12.136 66.7395
rfemur -30.3115 -2.96174 17.2963
rtibia 15.9483
rfoot -1.28369 -21.353
rtoes 14.579
lfemur -0.340001 -7.54423 -15.8906
ltibia 25.5774
lfoot -9.55732 -7.7448
ltoes -17.1539
372
root 4.71073 17.7875 4.67097 9.05131 -75.6846 -1.93605
lowerback -2.83256 2.30795 0.212397
upperback -4.3223 3.02991 1.11929
thorax -2.90555 1.49713 1.03896
lowerneck -8.95301 -1.80783 -6.29167
upperneck -3.11909 -1.91986 7.4408
head 0.722839 -0.846026 3.47264
rclavicle -1.02374e-014 0
rhumerus 34.9931 24.0676 -84.0944
rradius 63.9804
rwrist -32.9304
rhand -9.05171 -39.5653
rfingers 7.12502
rthumb 16.8967 -68.8502
lclavicle -1.02374e-014 0
lhumerus 36.6936 -6.85136 80.5725
lradius 64.4326
lwrist 9.6713
lhand -13.9528 37.1706
lfingers 7.12502
lthumb 12.1746 66.7963
rfemur -30.1164 -2.69571 17.6637
rtibia 16.1619
rfoot -1.09792 -21.1282
rtoes 15.3413
lfemur -0.577023 -7.60242 -15.443
ltibia 26.5907
lfoot -8.80649 -8.08492
ltoes -17.4623
373
root 4.55708 17.7881 4.64558 9.70644 -75.5943 -2.65286
lowerback -2.81644 2.35416 0.388661
upperback -4.30719 3.09097 1.15862
thorax -2.89285 1.52295 0.980925
lowerneck -9.25766 -1.88625 -6.24675
upperneck -2.34509 -2.03761 7.43677
head 1.03721 -0.892835 3.46019
rclavicle -1.49089e-015 1.59028e-015
rhumerus 33.9891 24.6899 -84.6423
rradius 63.8579
rwrist -33.0463
rhand -9.09809 -39.6982
rfingers 7.12502
rthumb 16.852 -68.987
lclavicle -1.49089e-015 1.59028e-015
lhumerus 35.1363 -7.59103 80.8446
lradius 64.9785
lwrist 9.58026
lhand -13.9332 37.2127
lfingers 7.12502
lthumb 12.1935 66.8373
rfemur -29.9111 -2.45622 18.0682
rtibia 16.4256
rfoot -0.924755 -20.871
rtoes 16.0878
lfemur -0.85454 -7.65102 -14.9841
ltibia 27.6556
lfoot -8.00452 -8.40488
ltoes -17.7209
374
root 4.40318 17.7895 4.62013 10.3933 -75.5138 -3.40736
lowerback -2.79749 2.3991 0.56833
upperback -4.28542 3.15045 1.20351
thorax -2.87471 1.54804 0.92676
lowerneck -9.58344 -1.96827 -6.2066
upperneck -1.56866 -2.16063 7.43844
head 1.35862 -0.941903 3.45185
rclavicle -1.39398e-014 -1.98785e-015
rhumerus 32.9132 25.3031 -85.2088
rradius 63.7629
rwrist -33.1608
rhand -9.12921 -39.8453
rfingers 7.12502
rthumb 16.8221 -69.1366
lclavicle -1.39398e-014 -1.98785e-015
lhumerus 33.5334 -8.34825 81.1278
lradius 65.5024
lwrist 9.46398
lhand -13.9399 37.2361
lfingers 7.12502
lthumb 12.187 66.8611
rfemur -29.6979 -2.24361 18.5066
rtibia 16.7353
rfoot -0.77007 -20.5839
rtoes 16.8343
lfemur -1.1744 -7.68818 -14.5162
ltibia 28.77
lfoot -7.15775 -8.70174
ltoes -17.924
375
root 4.24913 17.7916 4.59468 11.1078 -75.4408 -4.19494
lowerback -2.78309 2.443 0.748552
upperback -4.25571 3.20856 1.25442
thorax -2.8459 1.57264 0.878915
lowerneck -9.91238 -2.05375 -6.17202
upperneck -0.803844 -2.28899 7.4463
head 1.67983 -0.993609 3.44762
rclavicle 1.47598e-014 -1.66979e-014
rhumerus 31.7636 25.9012 -85.7931
rradius 63.693
rwrist -33.2736
rhand -9.16213 -39.999
rfingers 7.12502
rthumb 16.7904 -69.293
lclavicle 1.47598e-014 -1.66979e-014
lhumerus 31.8878 -9.12479 81.4288
lradius 65.9983
lwrist 9.31834
lhand -13.9726 37.2399
lfingers 7.12502
lthumb 12.1555 66.8667
rfemur -29.4723 -2.05258 18.9733
rtibia 17.0779
rfoot -0.634477 -20.2761
rtoes 17.5776
lfemur -1.53678 -7.71477 -14.0413
ltibia 29.9312
lfoot -6.27325 -8.9752
ltoes -18.06
376
root 4.09506 17.7945 4.56932 11.8493 -75.3749 -5.01421
lowerback -2.76115 2.4852 0.932883
upperback -4.22632 3.26449 1.30845
thorax -2.82139 1.5961 0.831667
lowerneck -10.2412 -2.14235 -6.14215
upperneck -0.046348 -2.42267 7.46198
head 2.00207 -1.04789 3.4477
rclavicle 4.69629e-015 8.34896e-015
rhumerus 30.5273 26.4803 -86.408
rradius 63.6446
rwrist -33.382
rhand -9.18251 -40.168
rfingers 7.12502
rthumb 16.7707 -69.4636
lclavicle 4.69629e-015 8.34896e-015
lhumerus 30.1914 -9.92035 81.7486
lradius 66.4624
lwrist 9.14072
lhand -14.0293 37.223
lfingers 7.12502
lthumb 12.1009 66.8531
rfemur -29.2342 -1.8853 19.4659
rtibia 17.4475
rfoot -0.521291 -19.948
rtoes 18.3094
lfemur -1.94136 -7.73053 -13.5616
ltibia 31.1345
lfoot -5.36213 -9.22186
ltoes -18.1353
377
root 3.94114 17.7981 4.5441 12.6189 -75.3147 -5.8649
lowerback -2.73652 2.52627 1.1212
upperback -4.19404 3.31893 1.36504
thorax -2.79514 1.61882 0.784817
lowerneck -10.571 -2.23497 -6.11503
upperneck 0.69804 -2.56293 7.48424
head 2.32392 -1.10538 3.45091
rclavicle 8.19738e-014 2.82274e-014
rhumerus 29.211 27.0314 -87.0515
rradius 63.6134
rwrist -33.4885
rhand -9.18526 -40.3473
rfingers 7.12502
rthumb 16.7681 -69.6432
lclavicle 8.19738e-014 2.82274e-014
lhumerus 28.4546 -10.7352 82.091
lradius 66.8887
lwrist 8.93059
lhand -14.115 37.188
lfingers 7.12502
lthumb 12.0182 66.823
rfemur -28.9819 -1.73712 19.9804
rtibia 17.8333
rfoot -0.432769 -19.6083
rtoes 19.0183
lfemur -2.38924 -7.73573 -13.0778
ltibia 32.3764
lfoot -4.43276 -9.44122
ltoes -18.152
378
root 3.78747 17.8025 4.5191 13.4152 -75.2591 -6.74556
lowerback -2.71226 2.5654 1.31066
upperback -4.157 3.37076 1.4266
thorax -2.76378 1.64037 0.742615
lowerneck -10.8992 -2.33125 -6.09523
upperneck 1.42417 -2.70868 7.514
head 2.64342 -1.16555 3.45822
rclavicle 3.55328e-015 9.14409e-015
rhumerus 27.8194 27.5536 -87.7195
rradius 63.5959
rwrist -33.604
rhand -9.17598 -40.5392
rfingers 7.12502
rthumb 16.777 -69.8343
lclavicle 3.55328e-015 9.14409e-015
lhumerus 26.6829 -11.5637 82.4627
lradius 67.2714
lwrist 8.68757
lhand -14.231 37.1329
lfingers 7.12502
lthumb 11.9063 66.7743
rfemur -28.7127 -1.6055 20.5133
rtibia 18.2258
rfoot -0.372759 -19.26
rtoes 19.6987
lfemur -2.87934 -7.73019 -12.5916
ltibia 33.6516
lfoot -3.4944 -9.6337
ltoes -18.1165
379
root 3.63433 17.8076 4.49431 14.2247 -75.2026 -7.64274
lowerback -2.68073 2.60055 1.50155
upperback -4.11823 3.41747 1.49035
thorax -2.73459 1.65942 0.701577
lowerneck -11.2815 -2.4259 -6.00396
upperneck 2.39331 -2.87625 7.77519
head 2.73963 -1.20862 3.17149
rclavicle 5.31004e-014 -2.38542e-015
rhumerus 26.3521 28.0435 -88.4135
rradius 63.5893
rwrist -33.7411
rhand -9.16439 -40.7367
rfingers 7.12502
rthumb 16.7882 -70.0309
lclavicle 5.31004e-014 -2.38542e-015
lhumerus 24.8776 -12.4055 82.8638
lradius 67.6058
lwrist 8.41162
lhand -14.376 37.0627
lfingers 7.12502
lthumb 11.7666 66.7122
rfemur -28.4226 -1.48919 21.0562
rtibia 18.6142
rfoot -0.341987 -18.91
rtoes 20.3443
lfemur -3.41225 -7.7194 -12.1076
ltibia 34.9569
lfoot -2.55773 -9.79971
ltoes -18.0309
380
root 3.48173 17.8135 4.46986 15.0513 -75.148 -8.55859
lowerback -2.65006 2.63264 1.69186
upperback -4.07441 3.46006 1.55831
thorax -2.69984 1.67662 0.665375
lowerneck -11.5936 -2.52819 -5.99506
upperneck 3.10326 -3.03599 7.83057
head 3.01535 -1.27158 3.1743
rclavicle -5.75854e-014 -1.82882e-014
rhumerus 24.8152 28.4935 -89.1343
rradius 63.5861
rwrist -33.892
rhand -9.12971 -40.9449
rfingers 7.12502
rthumb 16.8216 -70.2362
lclavicle -5.75854e-014 -1.82882e-014
lhumerus 23.0484 -13.2553 83.3011
lradius 67.8863
lwrist 8.10215
lhand -14.5522 36.9812
lfingers 7.12502
lthumb 11.5966 66.6404
rfemur -28.1117 -1.38371 21.6079
rtibia 18.9904
rfoot -0.343398 -18.558
rtoes 20.9614
lfemur -3.98617 -7.69972 -11.6266
ltibia 36.2849
lfoot -1.63356 -9.94148
ltoes -17.8929
381
root 3.32978 17.82 4.44574 15.8949 -75.0926 -9.49231
lowerback -2.62016 2.66089 1.88037
upperback -4.02582 3.49744 1.63158
thorax -2.66005 1.69149 0.635799
lowerneck -11.8987 -2.6337 -5.99385
upperneck 3.78718 -3.20035 7.89129
head 3.2835 -1.33672 3.17947
rclavicle 5.66536e-015 -1.59028e-015
rhumerus 23.2139 28.9049 -89.8729
rradius 63.585
rwrist -34.0653
rhand -9.08606 -41.1573
rfingers 7.12502
rthumb 16.8636 -70.4451
lclavicle 5.66536e-015 -1.59028e-015
lhumerus 21.1996 -14.11 83.777
lradius 68.1086
lwrist 7.76261
lhand -14.7588 36.8887
lfingers 7.12502
lthumb 11.3974 66.5589
rfemur -27.7781 -1.28621 22.1654
rtibia 19.3452
rfoot -0.377896 -18.2085
rtoes 21.5481
lfemur -4.60089 -7.67308 -11.1492
ltibia 37.6304
lfoot -0.731594 -10.0613
ltoes -17.707
382
root 3.17852 17.8271 4.4222 16.763 -75.0439 -10.4498
lowerback -2.5961 2.68795 2.07074
upperback -3.97094 3.53285 1.7083
thorax -2.61051 1.70556 0.609223
lowerneck -12.1959 -2.74201 -6.00076
upperneck 4.44109 -3.3686 7.95931
head 3.54273 -1.40366 3.18768
rclavicle -1.45361e-014 -3.97569e-015
rhumerus 21.5548 29.2722 -90.6289
rradius 63.5826
rwrist -34.2664
rhand -9.01815 -41.3816
rfingers 7.12502
rthumb 16.929 -70.6638
lclavicle -1.45361e-014 -3.97569e-015
lhumerus 19.3393 -14.9676 84.2906
lradius 68.2687
lwrist 7.3975
lhand -15.0009 36.7907
lfingers 7.12502
lthumb 11.1638 66.4737
rfemur -27.4243 -1.19411 22.7298
rtibia 19.6748
rfoot -0.443645 -17.8555
rtoes 22.0914
lfemur -5.25222 -7.63213 -10.6777
ltibia 38.9843
lfoot 0.135513 -10.1588
ltoes -17.4868
383
root 3.02831 17.8348 4.39908 17.6336 -74.9909 -11.4099
lowerback -2.56204 2.70932 2.26073
upperback -3.91719 3.56098 1.78646
thorax -2.56782 1.71604 0.583822
lowerneck -12.4816 -2.85206 -6.01407
upperneck 5.06946 -3.53987 8.03459
head 3.79376 -1.47193 3.19872
rclavicle 9.59136e-015 -4.77083e-015
rhumerus 19.8313 29.592 -91.4088
rradius 63.5763
rwrist -34.4982
rhand -8.92386 -41.6283
rfingers 7.12502
rthumb 17.0197 -70.9027
lclavicle 9.59136e-015 -4.77083e-015
lhumerus 17.4631 -15.8262 84.8435
lradius 68.3635
lwrist 7.00821
lhand -15.2797 36.6937
lfingers 7.12502
lthumb 10.8949 66.391
rfemur -27.0467 -1.10987 23.2916
rtibia 19.9721
rfoot -0.542608 -17.514
rtoes 22.5956
lfemur -5.94179 -7.58784 -10.2161
ltibia 40.3438
lfoot 0.954992 -10.2365
ltoes -17.244
384
root 2.87892 17.8429 4.3766 18.5251 -74.9453 -12.3878
lowerback -2.53158 2.72926 2.45092
upperback -3.86049 3.58687 1.86712
thorax -2.52017 1.72557 0.561155
lowerneck -12.7558 -2.96371 -6.03417
upperneck 5.66702 -3.71339 8.11537
head 4.03487 -1.5413 3.21213
rclavicle 2.90474e-014 -1.51076e-014
rhumerus 18.0575 29.8631 -92.2011
rradius 63.5622
rwrist -34.7614
rhand -8.81296 -41.8916
rfingers 7.12502
rthumb 17.1265 -71.1567
lclavicle 2.90474e-014 -1.51076e-014
lhumerus 15.5809 -16.6817 85.4359
lradius 68.3914
lwrist 6.5985
lhand -15.5898 36.6021
lfingers 7.12502
lthumb 10.5958 66.3149
rfemur -26.6506 -1.02944 23.856
rtibia 20.2366
rfoot -0.670603 -17.1772
rtoes 23.0437
lfemur -6.66389 -7.52802 -9.76435
ltibia 41.6975
lfoot 1.72048 -10.297
ltoes -16.9728
